<svg viewBox="0 0 162 29" xmlns="http://www.w3.org/2000/svg"><g fill="none" fill-rule="evenodd"><path d="M123.52 22.462l6.21-16.468h2.392l6.21 16.468h-2.346L134.399 18h-6.923l-1.61 4.462h-2.346zm4.669-6.44h5.474l-2.691-7.429h-.092l-2.691 7.429zm16.077 6.808c-1.457 0-2.714-.575-3.772-1.725-1.058-1.15-1.587-2.576-1.587-4.278s.529-3.128 1.587-4.278c1.058-1.15 2.315-1.725 3.772-1.725.859 0 1.63.184 2.312.552s1.192.828 1.529 1.38h.092l-.092-1.564V5.994h2.116v16.468h-2.024v-1.564h-.092c-.337.552-.847 1.012-1.53 1.38s-1.452.552-2.311.552zm.345-1.932c.997 0 1.844-.368 2.542-1.104s1.046-1.725 1.046-2.967-.349-2.231-1.046-2.967-1.545-1.104-2.542-1.104c-.981 0-1.825.372-2.53 1.115s-1.058 1.73-1.058 2.956.353 2.212 1.058 2.955 1.549 1.116 2.53 1.116zm12.259 1.932c-1.257 0-2.296-.307-3.116-.92s-1.423-1.38-1.806-2.3l1.886-.782c.598 1.41 1.618 2.116 3.059 2.116.66 0 1.2-.146 1.621-.437s.633-.675.633-1.15c0-.736-.514-1.234-1.541-1.495l-2.277-.552c-.72-.184-1.403-.533-2.047-1.047s-.966-1.207-.966-2.081c0-.997.44-1.806 1.323-2.427s1.928-.931 3.139-.931c.997 0 1.886.226 2.668.678s1.342 1.1 1.679 1.944l-1.84.759c-.414-.997-1.273-1.495-2.576-1.495-.629 0-1.158.13-1.587.391s-.644.613-.644 1.058c0 .644.498 1.081 1.495 1.311l2.231.529c1.058.245 1.84.667 2.346 1.265s.759 1.273.759 2.024c0 1.012-.414 1.855-1.242 2.53s-1.894 1.012-3.197 1.012z" fill="#fff"/><g fill="#fff" fill-rule="nonzero"><path d="M52.4 22.8c-5.1 0-9.5-4.2-9.5-9.3s4.3-9.3 9.5-9.3c2.8 0 4.9 1.1 6.4 2.6L57 8.6c-1.1-1-2.6-1.8-4.6-1.8-3.7 0-6.7 3-6.7 6.8s2.9 6.8 6.7 6.8c2.4 0 3.8-1 4.7-1.9.7-.7 1.2-1.8 1.4-3.2h-6.1v-2.5H61c.1.5.1 1 .1 1.6 0 1.9-.5 4.3-2.2 6-1.7 1.5-3.8 2.4-6.5 2.4zM74.3 16.8c0 3.5-2.7 6-5.9 6-3.3 0-5.9-2.5-5.9-6s2.7-6 5.9-6c3.3 0 5.9 2.6 5.9 6zm-2.6 0c0-2.2-1.5-3.6-3.3-3.6s-3.3 1.5-3.3 3.6 1.5 3.6 3.3 3.6c1.8.1 3.3-1.4 3.3-3.6zM87.6 16.8c0 3.5-2.7 6-5.9 6-3.3 0-5.9-2.5-5.9-6s2.7-6 5.9-6 5.9 2.6 5.9 6zm-2.6 0c0-2.2-1.5-3.6-3.3-3.6s-3.3 1.5-3.3 3.6 1.5 3.6 3.3 3.6c1.7.1 3.3-1.4 3.3-3.6zM100.5 11.2V22c0 4.4-2.6 6.3-5.7 6.3-2.9 0-4.7-2-5.3-3.5l2.3-1c.4 1 1.4 2.1 3 2.1 2 0 3.2-1.2 3.2-3.5v-.9h-.1c-.6.7-1.7 1.4-3.2 1.4-3 0-5.7-2.6-5.7-6s2.8-6 5.7-6c1.4 0 2.6.6 3.2 1.3h.1v-1h2.5zm-2.3 5.7c0-2.1-1.4-3.7-3.2-3.7s-3.3 1.5-3.3 3.7c0 2.1 1.5 3.6 3.3 3.6s3.2-1.6 3.2-3.6zM105.1 4.8v17.6h-2.6V4.8zM115.5 18.8l2 1.4c-.7 1-2.2 2.7-5 2.7-3.4 0-5.9-2.6-5.9-6 0-3.6 2.5-6 5.6-6s4.6 2.5 5.1 3.8l.3.7-8 3.3c.6 1.2 1.6 1.8 2.9 1.8s2.3-.7 3-1.7zm-6.3-2.2l5.4-2.2c-.3-.7-1.2-1.3-2.2-1.3-1.4 0-3.3 1.2-3.2 3.5z"/></g><g fill-rule="nonzero"><path d="M.666 18.851l9.629-16.484c1.223.72 7.39 4.133 8.385 4.782L9.052 23.633C8 25.024-.667 20.962.666 18.851z" fill="#FBBC04"/><path d="M28.352 18.851L18.724 2.367C17.378.128 14.479-.686 12.098.637 9.717 1.96 8.992 4.81 10.338 7.15l9.628 16.484c1.346 2.239 4.245 3.053 6.626 1.73 2.278-1.323 3.106-4.274 1.76-6.512z" fill="#4285F4"/><ellipse cx="4.833" cy="21.288" rx="4.833" ry="4.713" fill="#34A853"/></g></g></svg>
